# Blender v2.78 (sub 0) OBJ File: ''
# www.blender.org
o Cylinder
v 0.000000 0.000000 -1.000000
v 0.000000 1.000000 -1.000000
v 0.382683 0.000000 -0.923880
v 0.382683 1.000000 -0.923880
v 0.707107 0.000000 -0.707107
v 0.707107 1.000000 -0.707107
v 0.923880 0.000000 -0.382683
v 0.923880 1.000000 -0.382683
v 1.000000 0.000000 0.000000
v 1.000000 1.000000 0.000000
v 0.923880 0.000000 0.382684
v 0.923880 1.000000 0.382684
v 0.707107 0.000000 0.707107
v 0.707107 1.000000 0.707107
v 0.382683 0.000000 0.923880
v 0.382683 1.000000 0.923880
v 0.000000 0.000000 1.000000
v 0.000000 1.000000 1.000000
v -0.382683 0.000000 0.923880
v -0.382683 1.000000 0.923880
v -0.707107 0.000000 0.707107
v -0.707107 1.000000 0.707107
v -0.923880 0.000000 0.382684
v -0.923880 1.000000 0.382684
v -1.000000 0.000000 -0.000000
v -1.000000 1.000000 -0.000000
v -0.923879 0.000000 -0.382684
v -0.923879 1.000000 -0.382684
v -0.707107 0.000000 -0.707107
v -0.707107 1.000000 -0.707107
v -0.382683 0.000000 -0.923880
v -0.382683 1.000000 -0.923880
vn 0.1951 0.0000 -0.9808
vn 0.5556 0.0000 -0.8315
vn 0.8315 0.0000 -0.5556
vn 0.9808 0.0000 -0.1951
vn 0.9808 0.0000 0.1951
vn 0.8315 0.0000 0.5556
vn 0.5556 0.0000 0.8315
vn 0.1951 0.0000 0.9808
vn -0.1951 0.0000 0.9808
vn -0.5556 0.0000 0.8315
vn -0.8315 0.0000 0.5556
vn -0.9808 0.0000 0.1951
vn -0.9808 0.0000 -0.1951
vn -0.8315 0.0000 -0.5556
vn 0.0000 1.0000 -0.0000
vn -0.5556 0.0000 -0.8315
vn -0.1951 0.0000 -0.9808
vn 0.0000 -1.0000 0.0000
s off
f 2//1 3//1 1//1
f 4//2 5//2 3//2
f 6//3 7//3 5//3
f 8//4 9//4 7//4
f 10//5 11//5 9//5
f 12//6 13//6 11//6
f 14//7 15//7 13//7
f 16//8 17//8 15//8
f 18//9 19//9 17//9
f 20//10 21//10 19//10
f 22//11 23//11 21//11
f 24//12 25//12 23//12
f 26//13 27//13 25//13
f 28//14 29//14 27//14
f 22//15 14//15 30//15
f 30//16 31//16 29//16
f 32//17 1//17 31//17
f 15//18 23//18 7//18
f 2//1 4//1 3//1
f 4//2 6//2 5//2
f 6//3 8//3 7//3
f 8//4 10//4 9//4
f 10//5 12//5 11//5
f 12//6 14//6 13//6
f 14//7 16//7 15//7
f 16//8 18//8 17//8
f 18//9 20//9 19//9
f 20//10 22//10 21//10
f 22//11 24//11 23//11
f 24//12 26//12 25//12
f 26//13 28//13 27//13
f 28//14 30//14 29//14
f 6//15 4//15 2//15
f 2//15 32//15 30//15
f 30//15 28//15 26//15
f 26//15 24//15 30//15
f 22//15 20//15 14//15
f 18//15 16//15 14//15
f 14//15 12//15 6//15
f 10//15 8//15 6//15
f 6//15 2//15 30//15
f 30//15 24//15 22//15
f 20//15 18//15 14//15
f 12//15 10//15 6//15
f 6//15 30//15 14//15
f 30//16 32//16 31//16
f 32//17 2//17 1//17
f 31//18 1//18 3//18
f 3//18 5//18 31//18
f 7//18 9//18 11//18
f 11//18 13//18 7//18
f 15//18 17//18 23//18
f 19//18 21//18 23//18
f 23//18 25//18 27//18
f 27//18 29//18 31//18
f 31//18 5//18 7//18
f 7//18 13//18 15//18
f 17//18 19//18 23//18
f 23//18 27//18 31//18
f 31//18 7//18 23//18
